<svg width="396" height="281" viewBox="0 0 396 281" fill="none" xmlns="http://www.w3.org/2000/svg">
<path d="M326.981 111.347C314.657 99.8957 298.377 93.6626 281.556 93.9551C250.68 93.9551 224.437 114.384 215.073 141.884C210.111 156.284 210.121 171.93 215.083 186.33C224.475 213.791 250.709 234.22 281.604 234.22C297.575 234.22 311.243 230.215 321.854 223.135C327.992 219.175 333.258 214.004 337.328 207.938C341.398 201.872 344.187 195.039 345.524 187.858H284.566C282.909 187.858 281.566 186.515 281.566 184.858V146.17C281.566 144.513 282.909 143.17 284.566 143.17H390.752C392.204 143.17 393.452 144.21 393.679 145.644C394.784 152.61 395.302 159.697 395.302 166.752C395.302 202.068 382.427 231.918 360.014 252.134C340.388 269.874 313.497 280.156 281.556 280.156C236.77 280.156 195.843 255.442 175.742 216.228C167.464 200.103 163.146 182.238 163.146 164.112C163.146 145.986 167.454 128.12 175.733 111.995C195.843 72.7524 236.77 48.0095 281.575 48.0095C310.862 47.6332 339.19 58.4361 360.788 78.2175C382.387 97.9989 339.305 122.798 326.981 111.347Z" fill="white"/>
<path fill-rule="evenodd" clip-rule="evenodd" d="M0.376269 0.132987L0.369111 55.6718L0.374013 14.4922L0.376269 0.132987Z" fill="url(#paint0_linear_2198_287)"/>
<path d="M160.599 124.628C160.599 111.071 149.595 100.089 136.038 100.112C116.082 100.146 85.7291 100.178 51.6455 100.146L51.0014 149.164C79.4799 149.163 113.624 149.14 136.149 149.121C149.669 149.11 160.599 138.147 160.599 124.628Z" fill="url(#paint1_linear_2198_287)"/>
<path d="M51.4293 248.775C51.4293 248.775 50.87 224.526 51.0014 149.164L51.6455 100.146V53.8273V0.142995C18.2299 0.117861 11.5586 -0.159416 0.376269 0.132987L0.369111 55.6718L0.371552 119.499L0.372625 143.333C0.374871 192.076 0.376002 216.624 0.369111 224.93L0.369119 260.485L0.365413 280.162C23.4188 280.16 45.5687 280.158 50.4382 280.158C50.9904 280.158 51.4256 279.71 51.4257 279.158L51.4293 248.775Z" fill="url(#paint2_linear_2198_287)"/>
<path d="M51.6455 53.8273L163.101 53.7413C177.924 53.7299 189.936 41.7096 189.936 26.8858C189.936 12.0432 177.895 0.0151799 163.053 0.0302066L51.6455 0.142995V53.8273Z" fill="url(#paint3_linear_2198_287)"/>
<defs>
<linearGradient id="paint0_linear_2198_287" x1="95.1505" y1="-25.6355" x2="95.1505" y2="300.162" gradientUnits="userSpaceOnUse">
<stop stop-color="white"/>
<stop offset="1" stop-color="#F5F5F5"/>
</linearGradient>
<linearGradient id="paint1_linear_2198_287" x1="95.1505" y1="-25.6355" x2="95.1505" y2="300.162" gradientUnits="userSpaceOnUse">
<stop stop-color="white"/>
<stop offset="1" stop-color="#F5F5F5"/>
</linearGradient>
<linearGradient id="paint2_linear_2198_287" x1="95.1505" y1="-25.6355" x2="95.1505" y2="300.162" gradientUnits="userSpaceOnUse">
<stop stop-color="white"/>
<stop offset="1" stop-color="#F5F5F5"/>
</linearGradient>
<linearGradient id="paint3_linear_2198_287" x1="95.1505" y1="-25.6355" x2="95.1505" y2="300.162" gradientUnits="userSpaceOnUse">
<stop stop-color="white"/>
<stop offset="1" stop-color="#F5F5F5"/>
</linearGradient>
</defs>
</svg>
